<?xml version="1.0" encoding="UTF-8"?>
<svg version="1.1" xmlns="http://www.w3.org/2000/svg" width="1350" height="1014">
<path d="M0 0 C0.62519531 0.49242188 1.25039062 0.98484375 1.89453125 1.4921875 C5.84223693 4.67443391 8.81106427 8.12742236 11.73828125 12.265625 C13.02455558 14.12844245 13.02455558 14.12844245 15 16 C24.76076441 34.2651928 26.07893738 53.83972129 20.21948242 73.57226562 C17.8109797 81.07156015 14.69001044 88.16905683 11.125 95.1875 C10.73892578 95.96520752 10.35285156 96.74291504 9.95507812 97.54418945 C6.88889205 103.30329222 3.03684917 106.93287044 -2 111 C-3.62805642 112.53843863 -5.25335924 114.07980022 -6.875 115.625 C-16.64264419 124.54565966 -27.70438596 132.14519296 -39 139 C-40.02480469 139.62261719 -41.04960938 140.24523437 -42.10546875 140.88671875 C-90.09938826 168.9287934 -144.91684706 180.73982807 -199.75 186.125 C-200.51626709 186.20065186 -201.28253418 186.27630371 -202.07202148 186.35424805 C-216.32800139 187.66505763 -230.58938016 188.16078053 -244.8984375 188.16796875 C-246.46798733 188.17120461 -248.03753689 188.17457013 -249.60708618 188.17805481 C-252.87934055 188.18398276 -256.15156879 188.18590181 -259.42382812 188.18530273 C-262.69244015 188.18522232 -265.96090947 188.19203993 -269.22949219 188.20581055 C-296.21590688 188.31745888 -323.33320271 188.08836439 -350.15234375 184.76171875 C-350.91653625 184.67075424 -351.68072876 184.57978973 -352.46807861 184.48606873 C-355.38096306 184.13686716 -358.28868175 183.7870638 -361.1887207 183.34204102 C-370.86642553 181.82503787 -370.86642553 181.82503787 -379.74755859 185.26098633 C-382.57114065 187.51623016 -385.09767948 190.00194595 -387.59321594 192.61030579 C-389.78503712 194.77550036 -392.2488677 196.52381007 -394.75 198.3125 C-402.0849728 203.72386404 -409.05266762 209.56875354 -416.06103516 215.39306641 C-418.61144221 217.50673793 -421.17999288 219.59772779 -423.75 221.6875 C-428.26320766 225.37328626 -432.71189454 229.13056365 -437.15185547 232.90380859 C-441.5734361 236.65549273 -446.05489336 240.32984379 -450.55078125 243.9921875 C-456.44223622 248.80954785 -456.44223622 248.80954785 -462 254 C-463.0350002 254.9035272 -464.07757479 255.79840651 -465.125 256.6875 C-467.62044745 258.81551961 -470.09994803 260.95901343 -472.5625 263.125 C-479.27054915 269.00764466 -486.07135945 274.78380868 -492.85107422 280.58349609 C-495.91491971 283.20650051 -498.97107618 285.83663595 -502 288.5 C-504.54271818 290.73287051 -507.10405936 292.93944284 -509.6875 295.125 C-511.6499226 296.80141931 -513.48390616 298.48390616 -515.3125 300.3125 C-517.88229606 302.88229606 -520.50899939 305.35656821 -523.1875 307.8125 C-524.04730469 308.60269531 -524.90710938 309.39289063 -525.79296875 310.20703125 C-528 312 -528 312 -530 312 C-530 312.66 -530 313.32 -530 314 C-531.22265625 315.234375 -531.22265625 315.234375 -533.0625 316.75 C-537.33336501 320.37376425 -541.42060629 324.16445296 -545.5 328 C-550.0295482 332.25176406 -554.59278478 336.4338895 -559.30078125 340.48828125 C-563.22515225 343.97961821 -566.83394118 347.80478971 -570.5 351.5625 C-573.00826018 354.00805368 -575.61797087 356.25794506 -578.296875 358.51171875 C-579.85079607 359.86961767 -581.30728134 361.33699228 -582.75 362.8125 C-585 365 -585 365 -588 366 C-588.33 366.99 -588.66 367.98 -589 369 C-590.3203125 370.296875 -590.3203125 370.296875 -592.125 371.75 C-597.38140424 376.17190211 -602.11750578 381.09402156 -606.89501953 386.02050781 C-607.52520996 386.66213867 -608.15540039 387.30376953 -608.8046875 387.96484375 C-609.65522705 388.84064087 -609.65522705 388.84064087 -610.52294922 389.73413086 C-612 391 -612 391 -614 391 C-614 391.66 -614 392.32 -614 393 C-615.28417969 394.26513672 -615.28417969 394.26513672 -617.171875 395.8046875 C-622.91224088 400.68779169 -628.17656615 406.0268276 -633.4921875 411.36181641 C-635.25668446 413.13170488 -637.02650529 414.89614422 -638.796875 416.66015625 C-639.93261268 417.79655426 -641.06804037 418.93326219 -642.203125 420.0703125 C-642.72610168 420.59126495 -643.24907837 421.11221741 -643.78790283 421.6489563 C-646.74228589 424.6221751 -649.41813767 427.70097378 -652 431 C-653.11473308 432.03455506 -654.2612574 433.03595261 -655.4375 434 C-659.36742977 437.36745395 -663.07400578 440.9230854 -666.75 444.5625 C-667.30486084 445.10455078 -667.85972168 445.64660156 -668.43139648 446.20507812 C-670.93280519 448.70006036 -672.97994836 450.96855538 -674.890625 453.96484375 C-677.19468648 457.28013222 -679.69432346 459.47752673 -682.76123047 462.06298828 C-686.89814773 465.64230143 -690.70542684 469.56195721 -694.5625 473.4375 C-695.37396484 474.24509766 -696.18542969 475.05269531 -697.02148438 475.88476562 C-701.88868082 480.75981872 -706.53251694 485.75724873 -711 491 C-712.25 492.4375 -713.5 493.875 -714.75 495.3125 C-715.30171875 495.94800781 -715.8534375 496.58351563 -716.421875 497.23828125 C-719.43829114 500.60561709 -719.43829114 500.60561709 -721 502 C-721.66 502 -722.32 502 -723 502 C-723.40182495 502.89187012 -723.40182495 502.89187012 -723.81176758 503.80175781 C-725.01210673 506.02239757 -726.20702998 507.4243607 -728.01171875 509.171875 C-728.89609619 510.0388501 -728.89609619 510.0388501 -729.79833984 510.92333984 C-730.4217627 511.5261377 -731.04518555 512.12893555 -731.6875 512.75 C-736.12004409 517.10172789 -740.41289962 521.46749453 -744.4296875 526.2109375 C-746.20465381 528.2331628 -748.08299023 530.11214627 -750 532 C-754.50762486 536.44635617 -758.9208622 541.0489657 -762.57421875 546.234375 C-763.04472656 546.81703125 -763.51523437 547.3996875 -764 548 C-764.66 548 -765.32 548 -766 548 C-766 548.66 -766 549.32 -766 550 C-766.66 550 -767.32 550 -768 550 C-768.23332031 550.56203125 -768.46664062 551.1240625 -768.70703125 551.703125 C-770.31937076 554.56734142 -772.3193562 556.47252021 -774.6875 558.75 C-778.32489333 562.31464546 -781.7728113 565.92956808 -785.08203125 569.796875 C-787.98639347 573.13304667 -790.99701834 576.37063745 -794.00561523 579.61279297 C-796.29589276 582.092923 -798.52622422 584.60501975 -800.67578125 587.20703125 C-802.9801592 589.9761577 -805.45436759 592.45436759 -808 595 C-808.66 595.825 -809.32 596.65 -810 597.5 C-812.16938522 600.21173153 -814.54322417 602.54322417 -817 605 C-820.02942331 608.30697281 -823.01201308 611.65560287 -826 615 C-827.49928578 616.66730919 -828.99927538 618.33398578 -830.5 620 C-831.23992187 620.82242188 -831.97984375 621.64484375 -832.7421875 622.4921875 C-834.26708244 624.18592894 -835.79315402 625.87861169 -837.3203125 627.5703125 C-840.73833939 631.35910841 -844.1474454 635.15305946 -847.5 639 C-858.33792706 651.43322941 -858.33792706 651.43322941 -861.703125 654.60546875 C-863.25855059 656.08484006 -863.25855059 656.08484006 -864 659 C-865.41013523 660.17511269 -866.8237925 661.34634377 -868.2578125 662.4921875 C-873.55274816 667.07479998 -877.7345617 672.82732078 -881.73828125 678.53125 C-882.15464844 679.0159375 -882.57101562 679.500625 -883 680 C-883.66 680 -884.32 680 -885 680 C-885.21269531 680.53109375 -885.42539062 681.0621875 -885.64453125 681.609375 C-887.52250466 684.9215356 -890.08055714 687.50915381 -892.6875 690.25 C-893.78716389 691.42381858 -894.88612695 692.59829413 -895.984375 693.7734375 C-896.51095703 694.33514648 -897.03753906 694.89685547 -897.58007812 695.47558594 C-900.47017626 698.57836668 -903.23146176 701.78915092 -906 705 C-907.04521595 706.20343513 -908.09082921 707.40652524 -909.13671875 708.609375 C-910.29956863 709.94783895 -911.46232807 711.28638147 -912.625 712.625 C-913.17599365 713.25905762 -913.7269873 713.89311523 -914.29467773 714.54638672 C-917.57422311 718.32876605 -920.80796288 722.14344958 -924 726 C-922.0191344 727.9808656 -918.34586102 727.7575341 -915.62890625 728.12890625 C-914.02799875 728.35663415 -912.42717248 728.5849336 -910.82641602 728.8137207 C-909.54337082 728.99555405 -909.54337082 728.99555405 -908.23440552 729.18106079 C-885.67821315 732.40116574 -863.32321848 736.44929528 -841 741 C-840.2004187 741.16288513 -839.4008374 741.32577026 -838.57702637 741.49359131 C-794.80824891 750.45116922 -751.40640904 761.53871802 -708.25 773.0625 C-641.52298133 790.87168837 -574.35285912 807.18403994 -505.75 815.875 C-504.98761017 815.9727774 -504.22522034 816.07055481 -503.43972778 816.17129517 C-480.11730471 819.12315819 -456.83223611 820.33757316 -433.3293457 820.26074219 C-429.43620276 820.24999642 -425.54352002 820.26073162 -421.65039062 820.2734375 C-378.7116824 820.29728999 -331.05744493 817.02455358 -290.15649414 803.02685547 C-286.56228364 801.85760422 -282.92869788 801.04712305 -279.2421875 800.23828125 C-269.99805497 798.13080964 -261.09056334 795.24880425 -252.125 792.1875 C-250.52498678 791.64631605 -248.92488822 791.10538436 -247.32470703 790.56469727 C-242.87804215 789.05780507 -238.43769475 787.53308302 -234 786 C-232.98486328 785.65001953 -231.96972656 785.30003906 -230.92382812 784.93945312 C-184.17335942 768.66758397 -137.05726479 745.81543677 -95.59204102 718.84326172 C-91.1941162 716 -91.1941162 716 -89 716 C-88.67 715.34 -88.34 714.68 -88 714 C-86.32239807 712.94926 -84.60604329 711.96015201 -82.875 711 C-76.00560659 707.07347099 -69.47433627 702.73023709 -62.92333984 698.29833984 C-59.79185357 696.18444748 -56.64546771 694.09300589 -53.5 692 C-49.75647313 689.50772482 -46.01529832 687.01227669 -42.28515625 684.5 C-35.66642342 680.04962235 -29.00179376 675.6838919 -22.25 671.4375 C-21.23015015 670.79264648 -21.23015015 670.79264648 -20.18969727 670.13476562 C-14.86163613 666.80853028 -11.32080358 665.56408251 -5 666 C-0.85201505 667.79117532 1.2414131 669.83492576 3 674 C3.92627532 678.39980778 3.8524582 680.56548701 1.546875 684.4453125 C-0.37588396 687.02122241 -2.36757153 689.52605406 -4.40283203 692.01367188 C-7.67427703 696.0822253 -10.78635459 700.27561678 -13.9375 704.4375 C-15.33896491 706.27541006 -16.74129346 708.11266192 -18.14453125 709.94921875 C-20.35543962 712.84378086 -22.56313475 715.74059948 -24.76171875 718.64453125 C-30.01169509 725.54326049 -35.45048898 732.25900865 -41.00439453 738.91503906 C-44.33837041 742.92270998 -47.53583896 746.99828422 -50.64208984 751.18481445 C-58.25578729 761.36241972 -66.78325551 770.94203176 -75.07421875 780.57421875 C-75.57453613 781.1583252 -76.07485352 781.74243164 -76.59033203 782.34423828 C-77.54752248 783.46143669 -78.50796634 784.57585868 -79.47216797 785.68701172 C-81.22008203 787.73133665 -82.81990522 789.62780411 -83.99609375 792.05859375 C-85.47054831 794.90997087 -87.70619814 796.76451514 -90 799 C-92.12608304 801.33812964 -94.18821066 803.73014061 -96.25 806.125 C-97.1016272 807.11197876 -97.1016272 807.11197876 -97.97045898 808.11889648 C-106.59238816 817.87942385 -106.59238816 817.87942385 -114.25 828.375 C-116.21440908 831.32161362 -118.48167947 833.51096227 -121 836 C-126.00694977 841.32195654 -130.85134445 846.74803235 -135.4375 852.4375 C-139.09571015 856.97316443 -142.94742965 861.2570117 -146.91381836 865.51928711 C-150.68996423 869.6012685 -154.1887624 873.86802802 -157.671875 878.203125 C-160.26571109 881.31920997 -162.98545647 884.28613927 -165.75 887.25 C-168.64679164 890.35568064 -171.45843521 893.43424098 -173.875 896.9375 C-176.02282055 900.03288845 -178.32304311 902.35329121 -181 905 C-183.14613964 907.25126093 -185.26137698 909.53072681 -187.375 911.8125 C-187.9529834 912.43560059 -188.5309668 913.05870117 -189.12646484 913.70068359 C-192.54289344 917.39435408 -195.90211882 921.12645784 -199.1875 924.9375 C-202.06858616 928.21597735 -205.03788137 931.41445751 -208.00634766 934.61376953 C-210.25043813 937.04357784 -212.41646173 939.50413788 -214.5234375 942.0546875 C-216.8921708 944.87176149 -219.37283668 947.42505858 -222 950 C-222.95819939 950.98849687 -223.91382643 951.9794922 -224.8671875 952.97265625 C-225.8697203 954.00267363 -226.8723252 955.03262085 -227.875 956.0625 C-228.36613281 956.57876953 -228.85726563 957.09503906 -229.36328125 957.62695312 C-232.92743839 961.2605419 -236.48612818 963.64124743 -241 966 C-242.11886194 964.84741894 -243.21929757 963.67694672 -244.3125 962.5 C-244.92738281 961.8503125 -245.54226563 961.200625 -246.17578125 960.53125 C-251.68164936 952.89141588 -251.41708374 945.21814947 -251.5 936.125 C-251.99272959 914.90592368 -255.653861 895.32427964 -263.91723633 875.66967773 C-264.93697436 873.15539692 -265.85232921 870.63310203 -266.73046875 868.06640625 C-267.04185791 867.16470703 -267.35324707 866.26300781 -267.67407227 865.33398438 C-268.29912798 863.51225587 -268.92081267 861.6893666 -269.53881836 859.86523438 C-269.82764893 859.02412109 -270.11647949 858.18300781 -270.4140625 857.31640625 C-270.6713916 856.55787354 -270.9287207 855.79934082 -271.19384766 855.01782227 C-272.02206063 852.74328869 -272.02206063 852.74328869 -274 850 C-275.82917969 850.52787109 -275.82917969 850.52787109 -277.6953125 851.06640625 C-362.32510278 874.68590715 -451.25083072 873.29385664 -647.875 846.1875 C-648.81161469 846.0090152 -649.74822937 845.8305304 -650.71322632 845.64663696 C-658.48769001 844.157505 -666.24580273 842.59096188 -674 841 C-674.83033501 840.82982235 -675.66067001 840.6596447 -676.51616669 840.48431015 C-712.76167848 833.04413876 -748.81246516 824.82625055 -784.83453369 816.38427734 C-796.88539363 813.56014379 -808.93788302 810.74298833 -820.9921875 807.93359375 C-821.63902245 807.7828005 -822.28585739 807.63200726 -822.9522934 807.47664452 C-840.83519212 803.30882607 -858.73485168 799.232853 -876.6796875 795.33984375 C-878.05012018 795.04229596 -878.05012018 795.04229596 -879.44823837 794.73873711 C-904.93768244 789.21749399 -930.53353938 783.81405147 -956.40136719 780.38867188 C-958.72485705 780.04115253 -960.97143311 779.58003168 -963.2578125 779.046875 C-969.34800846 777.9348647 -973.2430527 778.26977474 -978.45703125 781.609375 C-982.64357139 784.56965068 -986.6017359 787.79150215 -990.56054688 791.046875 C-994.3970811 794.11855973 -998.42884534 796.87602529 -1002.5 799.625 C-1003.67296631 800.42248657 -1003.67296631 800.42248657 -1004.86962891 801.23608398 C-1013.44719273 807.03419232 -1022.17733351 812.58340825 -1031 818 C-1031.69770508 818.42877441 -1032.39541016 818.85754883 -1033.11425781 819.29931641 C-1057.78996242 834.3645453 -1083.68645241 846.55325223 -1111 856 C-1111.75958008 856.26409668 -1112.51916016 856.52819336 -1113.30175781 856.80029297 C-1150.1971267 869.46691961 -1191.33055122 874.23925039 -1230 868 C-1230.75571289 867.88172852 -1231.51142578 867.76345703 -1232.29003906 867.64160156 C-1254.34029549 864.02936698 -1276.82879359 855.55740755 -1294 841 C-1295.03125 840.2575 -1296.0625 839.515 -1297.125 838.75 C-1304.77380281 831.43375383 -1310.26705697 821.34757838 -1310.51953125 810.65869141 C-1310.50986328 809.55920166 -1310.50986328 809.55920166 -1310.5 808.4375 C-1310.49355469 807.65810059 -1310.48710938 806.87870117 -1310.48046875 806.07568359 C-1309.76979106 783.09554651 -1293.02092131 765.7157713 -1277.546875 750.37890625 C-1225.01490642 701.31146934 -1162.18365679 685.90086082 -1092 688 C-1083.24717067 688.38432461 -1074.63012296 689.52841976 -1066 691 C-1064.18532227 691.30599121 -1064.18532227 691.30599121 -1062.33398438 691.61816406 C-1044.28274578 694.73874809 -1026.60237057 698.92975196 -1009 704 C-1007.59380922 704.40124927 -1006.18756866 704.80232418 -1004.78125 705.203125 C-1003.40453125 705.59757813 -1003.40453125 705.59757813 -1002 706 C-1001.27683594 705.13375 -1001.27683594 705.13375 -1000.5390625 704.25 C-999.90742187 703.5075 -999.27578125 702.765 -998.625 702 C-997.99851562 701.2575 -997.37203125 700.515 -996.7265625 699.75 C-995.87191406 698.88375 -995.87191406 698.88375 -995 698 C-994.34 698 -993.68 698 -993 698 C-992.6596875 697.1646875 -992.6596875 697.1646875 -992.3125 696.3125 C-990.61427198 693.32038397 -988.49235804 691.38399465 -986 689 C-984.66396489 687.66937393 -983.33081999 686.33584195 -982 685 C-979.86587439 682.86190023 -977.72622174 680.7332417 -975.5625 678.625 C-973.21644299 676.22172208 -970.98351697 673.75740247 -968.75 671.25 C-964.9320757 666.97162251 -960.95930733 662.9057819 -956.84765625 658.91015625 C-954.8278966 656.93660899 -954.8278966 656.93660899 -953 654 C-952.34 654 -951.68 654 -951 654 C-950.67 653.01 -950.34 652.02 -950 651 C-949.34 651 -948.68 651 -948 651 C-947.61171021 650.12166504 -947.61171021 650.12166504 -947.21557617 649.22558594 C-945.90778276 646.8311604 -944.50263899 645.28906671 -942.55078125 643.390625 C-941.86693359 642.71773437 -941.18308594 642.04484375 -940.47851562 641.3515625 C-939.76373047 640.65804687 -939.04894531 639.96453125 -938.3125 639.25 C-933.57921307 634.63515491 -929.04051472 629.9682733 -924.73022461 624.95507812 C-921.84508459 621.69499611 -918.73501604 618.6687044 -915.625 615.625 C-914.38573581 614.41118271 -913.14864259 613.19514371 -911.9140625 611.9765625 C-911.1089624 611.18886475 -911.1089624 611.18886475 -910.28759766 610.38525391 C-908.88723997 609.0089621 -908.88723997 609.0089621 -908 607 C-907.34 607 -906.68 607 -906 607 C-906 606.34 -906 605.68 -906 605 C-905.34 605 -904.68 605 -904 605 C-903.7635376 604.43684082 -903.5270752 603.87368164 -903.28344727 603.29345703 C-901.70392988 600.47093729 -899.77564816 598.56810126 -897.46484375 596.3046875 C-896.57345703 595.42425781 -895.68207031 594.54382813 -894.76367188 593.63671875 C-893.83103516 592.72535156 -892.89839844 591.81398438 -891.9375 590.875 C-890.09027833 589.06210385 -888.24511579 587.24710642 -886.40234375 585.4296875 C-885.58241943 584.62772949 -884.76249512 583.82577148 -883.91772461 582.99951172 C-881.9485366 581.14403639 -881.9485366 581.14403639 -881 579 C-880.34 579 -879.68 579 -879 579 C-878.67 578.01 -878.34 577.02 -878 576 C-876.37268533 574.26978904 -874.71770524 572.63682777 -873 571 C-871.72283878 569.73795894 -870.44814821 568.47341507 -869.17529297 567.20703125 C-868.46460663 566.50280029 -867.75392029 565.79856934 -867.021698 565.07299805 C-863.81309933 561.89116097 -860.60978333 558.70402809 -857.40673828 555.51660156 C-855.71711071 553.83707591 -854.02569878 552.15934348 -852.33251953 550.48339844 C-849.88100547 548.05614737 -847.43601117 545.62249076 -844.9921875 543.1875 C-844.23590057 542.44153564 -843.47961365 541.69557129 -842.70040894 540.92700195 C-838.71017264 536.9847983 -838.71017264 536.9847983 -835.50048828 532.42578125 C-833.59202024 529.34043493 -831.18632906 527.4607654 -828.42929077 525.12969971 C-823.31410002 520.64533728 -818.59771418 515.71827617 -813.80078125 510.8984375 C-812.63614075 509.73192698 -811.47127561 508.56564071 -810.30619812 507.39956665 C-807.25968428 504.34926233 -804.21618384 501.29596901 -801.17333984 498.24200439 C-798.08026944 495.13868733 -794.98435637 492.03820903 -791.88867188 488.9375 C-786.44336689 483.48266465 -781.00053532 478.02537222 -775.55952454 472.56625366 C-773.80515636 470.80727316 -772.04283385 469.05620067 -770.27384949 467.31192017 C-767.98401715 465.09640911 -767.98401715 465.09640911 -766.3125 462.6875 C-765.6628125 461.8521875 -765.6628125 461.8521875 -765 461 C-764.34 461 -763.68 461 -763 461 C-763 460.34 -763 459.68 -763 459 C-760.51380896 456.29443916 -757.92011383 453.93541118 -755.0625 451.625 C-752.15822437 449.25689833 -749.83700506 446.57799693 -747.44140625 443.70703125 C-744.35806778 440.05548949 -741.48384037 436.82674978 -737 435 C-737 434.34 -737 433.68 -737 433 C-732.69767442 428.23255814 -732.69767442 428.23255814 -729 427 C-729 426.34 -729 425.68 -729 425 C-726.83759194 422.62135114 -724.55318894 420.48357903 -722.13354492 418.3684082 C-713.0722685 410.42344109 -704.68141478 401.79011052 -696.1875 393.25 C-694.58942787 391.64690096 -692.9911223 390.04403459 -691.39257812 388.44140625 C-688.46755116 385.50826879 -685.543844 382.57383045 -682.62182617 379.63769531 C-681.6820694 378.69445656 -681.6820694 378.69445656 -680.72332764 377.73216248 C-679.22237455 376.22351458 -677.72590583 374.71040781 -676.23022461 373.1965332 C-674.3815383 371.37577451 -672.51344812 369.6877713 -670.5234375 368.02734375 C-666.70990007 364.72341243 -663.14935583 361.21201588 -659.6015625 357.62890625 C-658.75328888 356.77236954 -658.75328888 356.77236954 -657.88787842 355.89852905 C-655.52793471 353.51082374 -653.17180014 351.11943155 -650.81982422 348.72387695 C-649.08470636 346.95874547 -647.34357159 345.19973315 -645.6015625 343.44140625 C-645.06826324 342.89464737 -644.53496399 342.34788849 -643.98550415 341.78456116 C-642.69447777 340.48471482 -641.35155967 339.23678457 -640 338 C-639.34 338 -638.68 338 -638 338 C-637.73574219 337.39800781 -637.47148438 336.79601562 -637.19921875 336.17578125 C-635.93411659 333.8804656 -634.84230067 332.81402902 -632.8125 331.1875 C-627.57351269 326.79101158 -622.86151496 321.8843347 -618.10473633 316.97924805 C-617.47462646 316.33769775 -616.8445166 315.69614746 -616.1953125 315.03515625 C-615.34477295 314.15935913 -615.34477295 314.15935913 -614.47705078 313.26586914 C-613 312 -613 312 -611 312 C-611 311.34 -611 310.68 -611 310 C-609.56640625 308.58984375 -609.56640625 308.58984375 -607.5625 306.9375 C-602.20553195 302.38787643 -597.27791022 297.43245189 -592.42578125 292.3515625 C-590.25193384 290.09285018 -589.04520466 289.01506822 -586 288 C-585.67 287.01 -585.34 286.02 -585 285 C-583.43359375 283.45703125 -583.43359375 283.45703125 -581.4375 281.8125 C-578.48987358 279.31673788 -575.70425934 276.75780903 -573 274 C-568.59375341 269.53339386 -563.90333172 265.45759199 -559.1171875 261.40625 C-555.58113923 258.40596662 -552.24220816 255.32326337 -549 252 C-545.53552546 248.44998288 -542.04439367 244.98950262 -538.28515625 241.75 C-534.02540305 238.04317426 -529.87367139 234.23212229 -525.75 230.375 C-525.05648437 229.73304688 -524.36296875 229.09109375 -523.6484375 228.4296875 C-520.11707454 225.12833668 -516.9816732 221.81851073 -514 218 C-513.2575 217.566875 -512.515 217.13375 -511.75 216.6875 C-508.3344956 214.5916223 -505.88417335 211.96490406 -503.09765625 209.10546875 C-500.55404645 206.55238554 -497.8730186 204.20724187 -495.14453125 201.85546875 C-490.10425955 197.49457793 -485.08860584 193.08860584 -480.375 188.375 C-471.47560976 179.47560976 -471.47560976 179.47560976 -466 177 C-466 176.34 -466 175.68 -466 175 C-464.63671875 173.625 -464.63671875 173.625 -462.6875 172 C-458.2291007 168.21591376 -453.91882292 164.28864335 -449.61328125 160.33203125 C-447.86711106 158.77378969 -446.07081709 157.27002133 -444.23046875 155.82421875 C-441.92628887 154.19360272 -441.92628887 154.19360272 -441 152 C-441.89976562 151.79246094 -442.79953125 151.58492187 -443.7265625 151.37109375 C-453.03279256 149.16241843 -462.11463718 146.46639125 -471.19580078 143.46264648 C-475.31223167 142.11366827 -479.34595289 140.88111166 -483.59765625 140.0390625 C-486.68937912 139.3982231 -489.34418584 138.48135619 -492.19897461 137.13793945 C-496.78878125 135.05108365 -501.44623621 133.36944119 -506.21875 131.75390625 C-517.05826647 128.01933784 -527.78225077 124.00629559 -538.5 119.9375 C-539.95117722 119.38783066 -539.95117722 119.38783066 -541.43167114 118.82705688 C-563.28456331 110.54946314 -585.11877354 102.21137241 -606.7890625 93.46484375 C-607.49347977 93.18096298 -608.19789703 92.89708221 -608.92366028 92.604599 C-612.25365156 91.26189231 -615.58109392 89.91348683 -618.90405273 88.5534668 C-620.06106689 88.08465088 -621.21808105 87.61583496 -622.41015625 87.1328125 C-623.92814819 86.51237061 -623.92814819 86.51237061 -625.47680664 85.87939453 C-628.0268047 84.83544558 -628.0268047 84.83544558 -631 85 C-631 84.34 -631 83.68 -631 83 C-631.67804687 82.88841553 -632.35609375 82.77683105 -633.0546875 82.66186523 C-636.53921552 81.87882847 -639.79735392 80.68152206 -643.125 79.41015625 C-644.55286789 78.87272504 -645.98076635 78.33537501 -647.40869141 77.7980957 C-648.15644836 77.51519684 -648.90420532 77.23229797 -649.67462158 76.94082642 C-672.15144472 68.4510308 -694.75868482 60.48799568 -717.75 53.5 C-718.45263977 53.28590485 -719.15527954 53.07180969 -719.87921143 52.85122681 C-729.05802136 50.05558675 -729.05802136 50.05558675 -738.390625 47.84375 C-739.58171875 47.5653125 -740.7728125 47.286875 -742 47 C-742.33 46.34 -742.66 45.68 -743 45 C-745.32523343 44.6141956 -747.66117862 44.29235267 -750 44 C-752.71888236 43.39755147 -755.42094175 42.77113045 -758.125 42.109375 C-759.71971542 41.72721956 -761.31461256 41.3458218 -762.90966797 40.96508789 C-763.73996521 40.7664212 -764.57026245 40.56775452 -765.42572021 40.36306763 C-783.52508114 36.05268446 -801.56326974 32.54939612 -820 30 C-820.89879883 29.87544434 -821.79759766 29.75088867 -822.72363281 29.62255859 C-838.44646963 27.49912625 -854.15021999 26.7904646 -870 26.8125 C-871.21422134 26.81340637 -871.21422134 26.81340637 -872.45297241 26.81433105 C-885.71997771 26.84109056 -898.83164981 27.2581167 -912 29 C-912.94488281 29.12358887 -913.88976562 29.24717773 -914.86328125 29.37451172 C-954.49248496 34.78744103 -994.07351855 48.64691104 -1028 70 C-1028.95132812 70.59039062 -1029.90265625 71.18078125 -1030.8828125 71.7890625 C-1039.74242834 77.1182547 -1039.74242834 77.1182547 -1046.75 84.5625 C-1047.15734375 85.14128906 -1047.5646875 85.72007813 -1047.984375 86.31640625 C-1050.59096836 90.63733602 -1050.43471716 95.12615188 -1050 100 C-1048.36392727 105.31723638 -1045.54684867 107.3220147 -1040.9375 110.01953125 C-1034.89684162 113.07639668 -1027.69872631 113.08474806 -1021.26953125 111.19921875 C-1007.43294097 104.95666406 -1000.71648058 90.60448633 -995.4375 77.1875 C-992.33087594 69.37692578 -989.56371696 63.62811652 -981.875 59.5625 C-974.59725824 56.73702379 -967.00373749 56.99403365 -959.6875 59.5625 C-953.04132113 62.62422285 -948.68304271 66.94086059 -945.5625 73.5625 C-940.88943327 87.03312279 -944.99384825 100.63056105 -950.83203125 112.99609375 C-958.54397867 128.48765421 -970.16172423 141.99009201 -985 151 C-985.93457031 151.65097656 -986.86914062 152.30195313 -987.83203125 152.97265625 C-999.87430891 160.67912001 -1016.73201225 165.43399718 -1031 166 C-1032.05832031 166.0515625 -1033.11664062 166.103125 -1034.20703125 166.15625 C-1056.08546118 166.7154431 -1077.58105436 162.29289465 -1094.05078125 147.109375 C-1095.74403458 145.44150234 -1097.37295636 143.73213976 -1099 142 C-1099.80566406 141.23300781 -1100.61132812 140.46601563 -1101.44140625 139.67578125 C-1111.61947769 129.0315386 -1117.328909 114.59623495 -1117.15234375 99.9609375 C-1116.21369548 81.717466 -1107.99819646 66.6317884 -1095.55078125 53.69140625 C-1093.00458234 51.08887484 -1093.00458234 51.08887484 -1090.97265625 48.4140625 C-1083.8915875 39.74851699 -1073.17489334 33.32053897 -1064 27 C-1062.96875 26.28199219 -1061.9375 25.56398437 -1060.875 24.82421875 C-980.72114803 -28.90636584 -877.28537023 -34.50341165 -785.18035889 -16.44122314 C-774.38879148 -14.25741325 -763.68206222 -11.6614213 -753 -9 C-752.0416626 -8.76627686 -752.0416626 -8.76627686 -751.06396484 -8.52783203 C-695.03549248 5.80071744 -640.95077138 26.68673754 -587.38597107 48.26052856 C-501.06717216 83.07603408 -501.06717216 83.07603408 -411.9375 109.5625 C-410.91333984 109.81475342 -409.88917969 110.06700684 -408.83398438 110.3269043 C-400.55406225 112.60560085 -400.55406225 112.60560085 -392.5703125 110.63671875 C-391.76335938 109.99347656 -390.95640625 109.35023438 -390.125 108.6875 C-388.68447266 107.58148438 -388.68447266 107.58148438 -387.21484375 106.453125 C-386.69647949 106.05287109 -386.17811523 105.65261719 -385.64404297 105.24023438 C-382.72750426 103.0400537 -379.70545969 100.99514817 -376.6875 98.9375 C-376.02516357 98.48407227 -375.36282715 98.03064453 -374.68041992 97.56347656 C-373.24389599 96.58054787 -371.80677537 95.59849079 -370.36914062 94.6171875 C-367.78133313 92.85073688 -365.1953823 91.08158485 -362.609375 89.3125 C-357.94539649 86.12409632 -353.27629608 82.94332509 -348.60302734 79.76855469 C-346.93069565 78.63233533 -345.25908403 77.49505504 -343.58837891 76.35644531 C-341.47883426 74.92025672 -339.36527101 73.49023588 -337.25 72.0625 C-336.63632568 71.64347412 -336.02265137 71.22444824 -335.39038086 70.79272461 C-331.22988942 68 -331.22988942 68 -329 68 C-328.67 67.34 -328.34 66.68 -328 66 C-326.36487249 64.96902806 -324.68965041 64.00144975 -323 63.0625 C-317.91932101 60.16352434 -313.01035333 57.09044236 -308.125 53.875 C-297.96081846 47.22510385 -287.50196844 41.09757147 -277 35 C-276.01128906 34.42411133 -275.02257813 33.84822266 -274.00390625 33.25488281 C-271.08934787 31.55977717 -268.17066742 29.87205421 -265.25 28.1875 C-263.90083496 27.40451538 -263.90083496 27.40451538 -262.52441406 26.60571289 C-261.28256348 25.89402954 -261.28256348 25.89402954 -260.015625 25.16796875 C-258.92169434 24.53797974 -258.92169434 24.53797974 -257.80566406 23.89526367 C-256 23 -256 23 -254 23 C-253.67 22.34 -253.34 21.68 -253 21 C-251.32757204 20.0388003 -249.60947336 19.15661037 -247.875 18.3125 C-246.23917969 17.51585938 -246.23917969 17.51585938 -244.5703125 16.703125 C-234.87231435 12.07694645 -225.1429145 7.56984059 -215.27832031 3.30883789 C-211.67144302 1.75460891 -211.67144302 1.75460891 -208.13671875 0.04541016 C-149.32375451 -28.72939708 -54.84721287 -46.33458062 0 0 Z M-159.8125 52.875 C-161.36300887 53.38022521 -162.91371164 53.88485571 -164.46459961 54.38891602 C-191.05653795 63.11951919 -217.48026215 73.87454289 -241.6640625 88.046875 C-244.68055378 89.8129706 -247.72731944 91.48302716 -250.8125 93.125 C-257.09405641 96.53146337 -263.30899565 100.21028741 -269.015625 104.5234375 C-271.20392412 106.15173881 -273.47749169 107.52788669 -275.8125 108.9375 C-280.7740193 112.06686797 -285.366158 115.52429785 -289.9375 119.1875 C-290.57598877 119.69853271 -291.21447754 120.20956543 -291.87231445 120.73608398 C-295.08871833 123.34475076 -298.13868501 125.9952607 -301 129 C-243.34855856 135.29331969 -168.28742604 137.45929332 -119.70703125 101.29296875 C-110.82918759 93.9605911 -104.12565455 85.65709583 -102.62109375 74.0859375 C-102.23708593 67.63133796 -103.0475938 63.13533056 -107.0390625 57.97265625 C-115.02350598 49.94049697 -124.345472 48.02580545 -135.27734375 47.65625 C-144.04241975 47.70768153 -151.58900065 50.11896834 -159.8125 52.875 Z M-1204.8125 781.3125 C-1208.67089086 785.49996471 -1209.35880779 788.16947217 -1209.27734375 793.80859375 C-1209.14290767 796.17807035 -1209.14290767 796.17807035 -1207.375 798.4375 C-1192.8350356 808.00326605 -1164.99866172 800.06143374 -1149.0625 796.875 C-1122.87513232 791.27502209 -1095.97191185 781.61077542 -1074 766 C-1074 765.67 -1074 765.34 -1074 765 C-1143.32600554 755.88179594 -1143.32600554 755.88179594 -1204.8125 781.3125 Z " fill="#FDFDFD" transform="translate(1319,31)"/>
<path d="M0 0 C1.06275146 -0.00563965 2.12550293 -0.0112793 3.22045898 -0.01708984 C15.34909565 0.09548619 25.17224622 1.35611542 34.1328125 10.0859375 C40.06907077 16.65310244 40.86315999 22.62985353 40.61328125 31.3515625 C38.69051961 56.67208587 17.72464696 82.12466411 0.3125 99.3125 C-0.33589844 99.99570312 -0.98429687 100.67890625 -1.65234375 101.3828125 C-11.70773875 111.85635264 -23.18519621 120.02207471 -35.6875 127.3125 C-36.68523438 127.91835938 -37.68296875 128.52421875 -38.7109375 129.1484375 C-85.09359706 157.02672894 -142.14166865 165.20945153 -195.0625 171.4375 C-195.7674057 171.52077545 -196.4723114 171.6040509 -197.19857788 171.68984985 C-204.66439472 172.56687174 -212.12771642 173.36859454 -219.6171875 174.015625 C-221.474646 174.18747314 -221.474646 174.18747314 -223.36962891 174.36279297 C-225.67459734 174.57256497 -227.98169008 174.76064044 -230.29052734 174.92236328 C-235.31044091 175.38964457 -238.68226949 175.71028802 -242.296875 179.4140625 C-243.08578125 180.37054688 -243.8746875 181.32703125 -244.6875 182.3125 C-245.3475 182.3125 -246.0075 182.3125 -246.6875 182.3125 C-246.6875 182.9725 -246.6875 183.6325 -246.6875 184.3125 C-248.15625 185.7578125 -248.15625 185.7578125 -250.1875 187.4375 C-253.79963933 190.50273091 -257.14804019 193.71805948 -260.4375 197.125 C-262.26858245 198.90521905 -264.12403141 200.54638085 -266.06640625 202.19921875 C-271.90585909 207.27235341 -277.31434161 212.79006418 -282.77172852 218.26635742 C-284.64159753 220.14164563 -286.51682899 222.01145465 -288.39257812 223.88085938 C-289.58365461 225.07259565 -290.7744214 226.26464155 -291.96484375 227.45703125 C-292.80534523 228.29449638 -292.80534523 228.29449638 -293.66282654 229.14888 C-296.52807333 231.96380873 -296.52807333 231.96380873 -298.6875 235.3125 C-299.3475 235.3125 -300.0075 235.3125 -300.6875 235.3125 C-301.02201172 236.14007813 -301.02201172 236.14007813 -301.36328125 236.984375 C-303.10304097 240.0430676 -305.34514482 242.1198812 -307.875 244.5625 C-311.73901266 248.30221575 -315.32572244 252.1478588 -318.84204102 256.21533203 C-321.98004494 259.78133993 -325.28194938 263.19066122 -328.5625 266.625 C-334.03986976 272.38363326 -339.23571088 278.202357 -344.0859375 284.50390625 C-344.61445312 285.10074219 -345.14296875 285.69757813 -345.6875 286.3125 C-346.3475 286.3125 -347.0075 286.3125 -347.6875 286.3125 C-347.93371094 286.87839844 -348.17992187 287.44429687 -348.43359375 288.02734375 C-349.90286224 290.70498258 -351.66502435 292.64293612 -353.75 294.875 C-357.07182994 298.49008941 -360.23847699 302.17197135 -363.3125 306 C-365.81723231 309.09841453 -368.3214111 312.04546947 -371.1875 314.8125 C-374.88796021 318.38565079 -378.01380369 322.35166326 -381.234375 326.35546875 C-383.7924403 329.4389965 -386.45789314 332.38205409 -389.1875 335.3125 C-395.0713565 341.63931583 -400.6048544 348.23435784 -405.81640625 355.12890625 C-406.43386719 355.84949219 -407.05132813 356.57007813 -407.6875 357.3125 C-408.3475 357.3125 -409.0075 357.3125 -409.6875 357.3125 C-409.90277344 357.84617187 -410.11804688 358.37984375 -410.33984375 358.9296875 C-412.18326844 362.18907608 -414.68763373 364.7406177 -417.25 367.4375 C-420.87383907 371.07653407 -420.87383907 371.07653407 -423.6875 375.3125 C-424.3475 375.3125 -425.0075 375.3125 -425.6875 375.3125 C-425.93886719 375.88097656 -426.19023438 376.44945312 -426.44921875 377.03515625 C-427.85804454 379.62615132 -429.52024738 381.56583697 -431.5 383.75 C-432.56541016 384.92755859 -432.56541016 384.92755859 -433.65234375 386.12890625 C-435.25899972 387.85274634 -436.88178023 389.53688267 -438.5625 391.1875 C-440.8345871 393.32067151 -440.8345871 393.32067151 -442.6875 396.3125 C-426.83711523 402.83973367 -410.87947435 408.80942054 -394.64306641 414.30273438 C-391.99728391 415.20666271 -389.36189421 416.13337278 -386.73046875 417.078125 C-371.20817962 422.65035329 -355.47240551 427.54587547 -339.6875 432.3125 C-339.03589905 432.50970642 -338.3842981 432.70691284 -337.71295166 432.91009521 C-293.4652851 446.26695879 -247.763587 455.42090251 -201.6875 459.3125 C-200.64682373 459.40893799 -199.60614746 459.50537598 -198.53393555 459.60473633 C-185.46129927 460.66745367 -172.35524708 460.42130829 -159.25 460.375 C-156.76497486 460.36997451 -154.27994874 460.36541346 -151.79492188 460.36132812 C-145.75909279 460.35040673 -139.7233011 460.33375197 -133.6875 460.3125 C-136.30843922 457.66261735 -138.93492198 455.01829857 -141.5625 452.375 C-142.30886719 451.62025391 -143.05523438 450.86550781 -143.82421875 450.08789062 C-144.53964844 449.36923828 -145.25507812 448.65058594 -145.9921875 447.91015625 C-146.65202637 447.24508057 -147.31186523 446.58000488 -147.99169922 445.89477539 C-149.61423932 444.2311289 -149.61423932 444.2311289 -151.6875 443.3125 C-151.6875 442.6525 -151.6875 441.9925 -151.6875 441.3125 C-152.25984375 441.0546875 -152.8321875 440.796875 -153.421875 440.53125 C-155.89878995 439.19884058 -157.8216166 437.66193882 -159.9375 435.8125 C-160.64390625 435.2040625 -161.3503125 434.595625 -162.078125 433.96875 C-163.6875 432.3125 -163.6875 432.3125 -163.6875 430.3125 C-164.25879639 430.0642749 -164.83009277 429.8160498 -165.41870117 429.56030273 C-169.95133554 427.06742699 -173.36538716 423.00404256 -177 419.375 C-177.82951172 418.56998047 -178.65902344 417.76496094 -179.51367188 416.93554688 C-185.15406175 411.32186761 -190.06534343 405.44763598 -193.6875 398.3125 C-193.6875 397.3225 -193.6875 396.3325 -193.6875 395.3125 C-191.81640625 393.59375 -191.81640625 393.59375 -189.25 391.8125 C-188.42628906 391.2246875 -187.60257813 390.636875 -186.75390625 390.03125 C-178.52300815 385.41775297 -170.38065165 384.76457119 -161.0870167 384.39767957 C-158.68913562 384.30270705 -156.29239647 384.19203975 -153.89537334 384.07750511 C-151.27668677 383.9524306 -148.65799258 383.82821746 -146.03906304 383.70832455 C-136.36440906 383.26386693 -126.69707154 382.70369419 -117.02885306 382.13825727 C-113.85430283 381.95280268 -110.67965379 381.76913512 -107.5049696 381.585989 C-100.75974178 381.19675157 -94.01462389 380.80563469 -87.26953125 380.4140625 C-86.10057745 380.34620655 -84.93162364 380.27835059 -83.727247 380.2084384 C-72.61931451 379.56349968 -61.51142608 378.91780581 -50.40363026 378.27051735 C-36.4324441 377.45643 -22.46106092 376.64591457 -8.48938543 375.84026778 C1.46982223 375.26567537 11.42877449 374.68677644 21.38756162 374.10494173 C27.27269541 373.76121791 33.15791151 373.41914165 39.04341698 373.0818367 C65.29398369 371.57599295 91.50754554 369.86117756 117.70623302 367.61228371 C168.73394965 363.2817459 168.73394965 363.2817459 181.3125 372.3125 C182.65871802 374.61809178 183.44578759 376.76051345 184.3125 379.3125 C177.0687626 391.93062322 160.84845459 397.70416903 148.38208008 404.08935547 C147.61790771 404.48268066 146.85373535 404.87600586 146.06640625 405.28125 C145.38908447 405.62607422 144.7117627 405.97089844 144.01391602 406.32617188 C142.13643944 407.31715337 142.13643944 407.31715337 140.3125 409.3125 C137.93057692 410.56367045 135.54466456 411.76391738 133.125 412.9375 C127.63496382 415.63800429 122.19610882 418.40562411 116.8125 421.3125 C109.05886605 425.47833159 101.21251738 429.43302718 93.3125 433.3125 C92.30445313 433.81023926 91.29640625 434.30797852 90.2578125 434.82080078 C72.849345 443.4007608 55.26445831 451.41420061 37.40087891 459.00073242 C35.22711196 459.9240249 33.05780871 460.85786221 30.8918457 461.79931641 C27.23150064 463.34674282 23.53921784 464.78030516 19.81640625 466.16796875 C19.11507065 466.43057999 18.41373505 466.69319122 17.69114685 466.96376038 C-26.9212615 483.6336413 -71.3569265 496.10125736 -118.6875 502.3125 C-119.54069824 502.42722656 -120.39389648 502.54195312 -121.27294922 502.66015625 C-174.39704326 509.55004491 -231.34599605 504.93904812 -283.6875 494.3125 C-284.81575195 494.08393311 -285.94400391 493.85536621 -287.10644531 493.61987305 C-319.21680406 487.08429603 -319.21680406 487.08429603 -331.67578125 484.0390625 C-333.36338356 483.63193665 -335.0567153 483.24349469 -336.76318359 482.92456055 C-341.04363831 482.02865973 -345.25884104 480.90250335 -349.48828125 479.79296875 C-350.46048615 479.53841919 -351.43269104 479.28386963 -352.43435669 479.02160645 C-355.62375008 478.18424357 -358.81207401 477.34293167 -362 476.5 C-363.09184601 476.21138092 -364.18369202 475.92276184 -365.30862427 475.62539673 C-385.8719345 470.17450748 -406.25437694 464.22884683 -426.58135986 457.96026611 C-429.82123506 456.96380755 -433.06498232 455.98032346 -436.30859375 454.99609375 C-452.98907517 449.91845722 -452.98907517 449.91845722 -460.125 447.45703125 C-460.96498535 447.16812012 -461.8049707 446.87920898 -462.67041016 446.58154297 C-464.20501853 446.04807939 -465.73632379 445.50495958 -467.26318359 444.94970703 C-469.9136046 444.02202749 -472.14631473 443.27457078 -474.97265625 443.47265625 C-477.03405411 444.48222468 -478.20910019 445.61002246 -479.75 447.3125 C-507.72782578 476.48341004 -548.47572527 494.14044851 -587.6875 501.3125 C-588.85925781 501.53679687 -590.03101563 501.76109375 -591.23828125 501.9921875 C-610.67980017 505.2660765 -631.09355659 504.54917304 -648.15625 493.75 C-655.55365665 488.42386721 -661.16046085 481.47473489 -662.6875 472.3125 C-663.82806881 456.53117523 -659.0936548 445.79586876 -649.0625 433.75 C-643.89544276 428.16399217 -637.84185958 423.73287109 -631.6875 419.3125 C-630.78644531 418.65636719 -629.88539063 418.00023437 -628.95703125 417.32421875 C-593.6176736 392.69375736 -547.91243117 376.17058225 -504.6015625 376.26171875 C-492.59997504 376.60241713 -492.59997504 376.60241713 -482.5 370.8125 C-480.88059044 368.99261691 -479.27630586 367.15916124 -477.6875 365.3125 C-475.78332038 363.66891949 -473.84559257 362.06333677 -471.875 360.5 C-470.97394531 359.77039063 -470.07289063 359.04078125 -469.14453125 358.2890625 C-468.33371094 357.63679688 -467.52289062 356.98453125 -466.6875 356.3125 C-462.63395944 353.29013065 -462.63395944 353.29013065 -459.6875 349.3125 C-458.98238281 348.90515625 -458.27726563 348.4978125 -457.55078125 348.078125 C-453.88248463 345.81609216 -450.98294991 343.02841314 -447.875 340.0625 C-446.63218538 338.89381306 -445.38870002 337.72583898 -444.14453125 336.55859375 C-443.54979004 335.99897949 -442.95504883 335.43936523 -442.34228516 334.86279297 C-440.2722515 332.92347256 -438.1805808 331.01172734 -436.0625 329.125 C-435.49273438 328.61582031 -434.92296875 328.10664062 -434.3359375 327.58203125 C-432.54754816 326.20471719 -430.73374767 325.25520362 -428.6875 324.3125 C-428.6875 323.6525 -428.6875 322.9925 -428.6875 322.3125 C-427.0078125 320.5859375 -427.0078125 320.5859375 -424.8125 318.6875 C-423.73355469 317.74003906 -423.73355469 317.74003906 -422.6328125 316.7734375 C-420.6875 315.3125 -420.6875 315.3125 -418.6875 315.3125 C-418.6875 314.6525 -418.6875 313.9925 -418.6875 313.3125 C-417.21875 311.8671875 -417.21875 311.8671875 -415.1875 310.1875 C-411.3375766 306.93356119 -407.82685665 303.46477282 -404.3515625 299.81640625 C-402.6875 298.3125 -402.6875 298.3125 -400.6875 298.3125 C-400.6875 297.6525 -400.6875 296.9925 -400.6875 296.3125 C-399.1484375 294.83203125 -399.1484375 294.83203125 -397.0625 293.125 C-394.35283223 290.8289131 -391.93453284 288.56232196 -389.6875 285.8125 C-387.61770926 283.28674333 -385.44661528 281.15415007 -382.95727539 279.04272461 C-378.92748882 275.55981918 -375.12999927 271.90018723 -371.37109375 268.12890625 C-370.71093765 267.46970688 -370.05078156 266.81050751 -369.37062073 266.1313324 C-367.98714494 264.74853165 -366.60490917 263.36448924 -365.22387695 261.97924805 C-363.13018331 259.88019657 -361.03120126 257.7865406 -358.93164062 255.69335938 C-357.57780429 254.33886214 -356.22427825 252.98405469 -354.87109375 251.62890625 C-354.25423203 251.01406876 -353.6373703 250.39923126 -353.0018158 249.76576233 C-349.27789167 246.02208632 -345.7440689 242.16306014 -342.30799866 238.15318298 C-339.58300048 235.05792724 -336.63272349 232.19613524 -333.6875 229.3125 C-329.44530727 225.11414418 -325.30638577 220.90429526 -321.44140625 216.3515625 C-319.16328676 213.70305833 -316.80245574 211.13315741 -314.4375 208.5625 C-313.97093994 208.05477051 -313.50437988 207.54704102 -313.02368164 207.02392578 C-311.09380016 204.9250108 -309.16207855 202.82779306 -307.23046875 200.73046875 C-300.45096303 193.36964818 -300.45096303 193.36964818 -293.75 185.9375 C-293.24597656 185.37289062 -292.74195313 184.80828125 -292.22265625 184.2265625 C-290.19809482 181.70230016 -288.4540267 179.02142863 -286.6875 176.3125 C-287.27426514 176.31773682 -287.86103027 176.32297363 -288.46557617 176.32836914 C-299.37943101 176.41206922 -310.28149475 176.39964381 -321.1875 175.9375 C-322.46596802 175.8912146 -322.46596802 175.8912146 -323.77026367 175.84399414 C-330.13722808 175.53862871 -335.63599639 175.14101408 -340.5625 170.75 C-341.26375 169.945625 -341.965 169.14125 -342.6875 168.3125 C-343.0175 167.9825 -343.3475 167.6525 -343.6875 167.3125 C-344.20746334 162.89281159 -344.00373018 160.82038484 -341.625 157 C-336.29313818 152.12191365 -329.95069157 151.99950305 -323.0546875 151.78515625 C-321.35782263 151.71629715 -319.66096415 151.64728043 -317.96411133 151.578125 C-317.08220123 151.54525391 -316.20029114 151.51238281 -315.29165649 151.47851562 C-297.3255827 150.79707088 -279.53268723 149.55830898 -261.6875 147.3125 C-260.44750244 147.16941406 -259.20750488 147.02632812 -257.92993164 146.87890625 C-256.68203857 146.72292969 -255.43414551 146.56695312 -254.1484375 146.40625 C-253.01325684 146.26896484 -251.87807617 146.13167969 -250.70849609 145.99023438 C-245.68731156 144.863775 -243.10488947 141.96487696 -239.6875 138.3125 C-237.86565602 136.63328191 -236.03152498 134.96732953 -234.1875 133.3125 C-233.25679687 132.46300781 -232.32609375 131.61351562 -231.3671875 130.73828125 C-228.41455703 128.06541897 -225.41431908 125.4531073 -222.40234375 122.84765625 C-220.82171461 121.43265112 -219.34361841 119.96712926 -217.875 118.4375 C-215.6875 116.3125 -215.6875 116.3125 -212.6875 115.3125 C-212.6875 114.6525 -212.6875 113.9925 -212.6875 113.3125 C-211.04296875 111.62109375 -211.04296875 111.62109375 -208.875 109.75 C-208.16730469 109.12996094 -207.45960938 108.50992188 -206.73046875 107.87109375 C-204.6875 106.3125 -204.6875 106.3125 -201.6875 105.3125 C-201.6875 104.6525 -201.6875 103.9925 -201.6875 103.3125 C-200.0498728 101.85847658 -198.35015804 100.47401322 -196.625 99.125 C-192.59301094 95.90353883 -188.87033233 92.6170937 -185.28125 88.91796875 C-180.00839027 83.60633799 -173.95028374 79.06131534 -168.140625 74.36328125 C-166.20580724 72.74579825 -164.46287725 71.09286427 -162.6875 69.3125 C-161.53665372 68.41679417 -160.36841964 67.54316635 -159.1875 66.6875 C-155.96681836 64.30977655 -152.87998391 61.82196728 -149.8125 59.25 C-131.03569799 43.85199066 -110.61445224 30.73203298 -88.6875 20.3125 C-87.39026633 19.64522807 -86.09340399 18.97723387 -84.796875 18.30859375 C-59.2627282 5.52770483 -28.32774657 0.14100421 0 0 Z M-78.8125 64.125 C-79.57175781 64.38603516 -80.33101562 64.64707031 -81.11328125 64.91601562 C-85.72839026 66.5245519 -90.21285652 68.34246891 -94.6875 70.3125 C-95.39503418 70.61534912 -96.10256836 70.91819824 -96.83154297 71.23022461 C-110.86359889 77.2407944 -124.74777446 83.6704536 -136.6875 93.3125 C-137.98100092 94.03511184 -139.29401657 94.72400414 -140.625 95.375 C-151.37874413 101.22290383 -160.66204942 110.01955863 -169.80126953 118.07226562 C-170.39665527 118.59626953 -170.99204102 119.12027344 -171.60546875 119.66015625 C-172.12906982 120.12429932 -172.6526709 120.58844238 -173.19213867 121.06665039 C-174.6875 122.3125 -174.6875 122.3125 -177.6875 124.3125 C-177.6875 124.9725 -177.6875 125.6325 -177.6875 126.3125 C-178.25984375 126.55742187 -178.8321875 126.80234375 -179.421875 127.0546875 C-182.06774402 128.52360099 -183.83603139 130.26598244 -185.9375 132.4375 C-186.99710938 133.52417969 -186.99710938 133.52417969 -188.078125 134.6328125 C-188.60921875 135.18710937 -189.1403125 135.74140625 -189.6875 136.3125 C-186.88157439 137.7154628 -185.30194986 136.98951582 -182.24609375 136.34375 C-181.11743896 136.1060791 -179.98878418 135.8684082 -178.82592773 135.62353516 C-177.60462158 135.35589355 -176.38331543 135.08825195 -175.125 134.8125 C-173.86953369 134.53841309 -172.61406738 134.26432617 -171.32055664 133.98193359 C-152.11427438 129.70474706 -133.53629211 124.70107106 -115.6875 116.3125 C-114.9670752 115.97573242 -114.24665039 115.63896484 -113.50439453 115.29199219 C-97.11456885 107.55163077 -83.28979531 98.00345625 -70.3125 85.3125 C-69.276698 84.31585327 -69.276698 84.31585327 -68.2199707 83.29907227 C-63.14485108 78.2413566 -59.1225101 73.22759092 -58.3125 65.9375 C-58.44166667 63.15833333 -58.44166667 63.15833333 -60.6875 61.3125 C-67.0916348 60.29038312 -72.84684608 61.96078764 -78.8125 64.125 Z M-601.6875 450.3125 C-601.6875 450.9725 -601.6875 451.6325 -601.6875 452.3125 C-596.99790819 455.43889454 -592.78748538 454.65829086 -587.4375 453.77734375 C-572.44004469 450.76798594 -558.21584414 445.67130198 -546.6875 435.3125 C-546.6875 434.9825 -546.6875 434.6525 -546.6875 434.3125 C-565.6097154 433.86551853 -585.93594761 439.81146508 -601.6875 450.3125 Z " fill="#FDFDFD" transform="translate(1121.6875,259.6875)"/>
<path d="M0 0 C0.99 0.495 0.99 0.495 2 1 C-48.16 51.16 -98.32 101.32 -150 153 C-150.66 152.67 -151.32 152.34 -152 152 C-99 99 -99 99 -96.26591492 96.30497742 C-93.98306725 94.09491203 -93.98306725 94.09491203 -92.3125 91.6875 C-91.879375 91.130625 -91.44625 90.57375 -91 90 C-90.34 90 -89.68 90 -89 90 C-89 89.34 -89 88.68 -89 88 C-86.51380896 85.29443916 -83.92011383 82.93541118 -81.0625 80.625 C-78.15822437 78.25689833 -75.83700506 75.57799693 -73.44140625 72.70703125 C-70.35806778 69.05548949 -67.48384037 65.82674978 -63 64 C-63 63.34 -63 62.68 -63 62 C-58.69767442 57.23255814 -58.69767442 57.23255814 -55 56 C-55 55.34 -55 54.68 -55 54 C-52.83759194 51.62135114 -50.55318894 49.48357903 -48.13354492 47.3684082 C-39.0722685 39.42344109 -30.68141478 30.79011052 -22.1875 22.25 C-20.58942787 20.64690096 -18.9911223 19.04403459 -17.39257812 17.44140625 C-14.46755116 14.50826879 -11.543844 11.57383045 -8.62182617 8.63769531 C-5.75207954 5.75424229 -2.87817791 2.87503618 0 0 Z " fill="#EAEAE9" transform="translate(645,402)"/>
<path d="M0 0 C0.66 0.33 1.32 0.66 2 1 C-4.93 7.93 -11.86 14.86 -19 22 C-19 19 -19 19 -17.20703125 16.9140625 C-16.41683594 16.15867187 -15.62664062 15.40328125 -14.8125 14.625 C-13.98878906 13.82835938 -13.16507813 13.03171875 -12.31640625 12.2109375 C-11.55199219 11.48132813 -10.78757813 10.75171875 -10 10 C-9.0925 9.0925 -8.185 8.185 -7.25 7.25 C-4.83333333 4.83333333 -2.41666667 2.41666667 0 0 Z " fill="#E1E1E0" transform="translate(238,70)"/>
<path d="M0 0 C0.66 0.33 1.32 0.66 2 1 C-2.29 5.29 -6.58 9.58 -11 14 C-11.66 13.67 -12.32 13.34 -13 13 C-8.96476648 8.18876004 -4.95532767 3.86757281 0 0 Z " fill="#E9E9E9" transform="translate(483,684)"/>
<path d="" fill="#F4F4F4" transform="translate(0,0)"/>
<path d="" fill="#F4F4F4" transform="translate(0,0)"/>
<path d="" fill="#F2F2F2" transform="translate(0,0)"/>
<path d="" fill="#F4F4F4" transform="translate(0,0)"/>
<path d="" fill="#F3F3F3" transform="translate(0,0)"/>
<path d="" fill="#F4F4F4" transform="translate(0,0)"/>
<path d="" fill="#F3F3F3" transform="translate(0,0)"/>
<path d="" fill="#F3F3F3" transform="translate(0,0)"/>
<path d="" fill="#F4F4F4" transform="translate(0,0)"/>
<path d="" fill="#F5F4F2" transform="translate(0,0)"/>
<path d="" fill="#F4F4F4" transform="translate(0,0)"/>
<path d="" fill="#F3F3F3" transform="translate(0,0)"/>
<path d="" fill="#F3F3F3" transform="translate(0,0)"/>
<path d="" fill="#F3F3F3" transform="translate(0,0)"/>
<path d="" fill="#F4F4F4" transform="translate(0,0)"/>
<path d="" fill="#F4F4F4" transform="translate(0,0)"/>
<path d="" fill="#F4F4F4" transform="translate(0,0)"/>
<path d="" fill="#F1F1F1" transform="translate(0,0)"/>
<path d="" fill="#F1F1F1" transform="translate(0,0)"/>
<path d="" fill="#F4F4F4" transform="translate(0,0)"/>
<path d="" fill="#F4F4F4" transform="translate(0,0)"/>
<path d="" fill="#F2F2F2" transform="translate(0,0)"/>
<path d="" fill="#F3F3F3" transform="translate(0,0)"/>
<path d="" fill="#F4F4F4" transform="translate(0,0)"/>
<path d="" fill="#F4F4F4" transform="translate(0,0)"/>
<path d="" fill="#EFEFED" transform="translate(0,0)"/>
<path d="" fill="#F3F3F1" transform="translate(0,0)"/>
<path d="" fill="#F1F1F1" transform="translate(0,0)"/>
<path d="" fill="#F3F3F3" transform="translate(0,0)"/>
<path d="" fill="#F4F4F4" transform="translate(0,0)"/>
<path d="" fill="#F4F4F4" transform="translate(0,0)"/>
<path d="" fill="#F1F1F1" transform="translate(0,0)"/>
<path d="" fill="#F4F4F4" transform="translate(0,0)"/>
<path d="" fill="#F4F4F4" transform="translate(0,0)"/>
<path d="" fill="#F4F3F1" transform="translate(0,0)"/>
<path d="" fill="#F2F2F2" transform="translate(0,0)"/>
<path d="" fill="#F2F2F2" transform="translate(0,0)"/>
<path d="" fill="#F3F3F3" transform="translate(0,0)"/>
<path d="" fill="#F4F4F4" transform="translate(0,0)"/>
<path d="" fill="#F4F4F4" transform="translate(0,0)"/>
<path d="" fill="#F4F4F4" transform="translate(0,0)"/>
<path d="" fill="#F2F2F2" transform="translate(0,0)"/>
<path d="" fill="#F1F1EF" transform="translate(0,0)"/>
<path d="" fill="#F4F4F4" transform="translate(0,0)"/>
<path d="" fill="#F3F3F3" transform="translate(0,0)"/>
<path d="" fill="#F4F4F2" transform="translate(0,0)"/>
<path d="" fill="#F3F3F1" transform="translate(0,0)"/>
<path d="" fill="#EFEFED" transform="translate(0,0)"/>
<path d="" fill="#F3F3F3" transform="translate(0,0)"/>
<path d="" fill="#F4F4F4" transform="translate(0,0)"/>
<path d="" fill="#F3F3F1" transform="translate(0,0)"/>
<path d="" fill="#F4F4F2" transform="translate(0,0)"/>
<path d="" fill="#ECECEC" transform="translate(0,0)"/>
<path d="" fill="#F3F3F3" transform="translate(0,0)"/>
<path d="" fill="#F4F4F4" transform="translate(0,0)"/>
<path d="" fill="#F3F3F3" transform="translate(0,0)"/>
<path d="" fill="#F4F4F4" transform="translate(0,0)"/>
<path d="" fill="#F2F2F2" transform="translate(0,0)"/>
<path d="" fill="#F4F3F1" transform="translate(0,0)"/>
<path d="" fill="#F1F1F1" transform="translate(0,0)"/>
<path d="" fill="#F4F4F4" transform="translate(0,0)"/>
<path d="" fill="#F4F4F4" transform="translate(0,0)"/>
<path d="" fill="#F5F4F2" transform="translate(0,0)"/>
<path d="" fill="#F4F4F4" transform="translate(0,0)"/>
<path d="" fill="#F4F4F4" transform="translate(0,0)"/>
<path d="" fill="#F4F4F2" transform="translate(0,0)"/>
<path d="" fill="#F4F4F4" transform="translate(0,0)"/>
<path d="" fill="#F3F3F3" transform="translate(0,0)"/>
<path d="" fill="#F4F4F4" transform="translate(0,0)"/>
<path d="" fill="#F1F1F1" transform="translate(0,0)"/>
<path d="" fill="#F3F3F3" transform="translate(0,0)"/>
<path d="" fill="#F0F0F0" transform="translate(0,0)"/>
<path d="" fill="#F3F3F3" transform="translate(0,0)"/>
<path d="" fill="#F0F0F0" transform="translate(0,0)"/>
<path d="" fill="#F4F4F4" transform="translate(0,0)"/>
<path d="" fill="#F4F4F4" transform="translate(0,0)"/>
<path d="" fill="#F1F0EE" transform="translate(0,0)"/>
<path d="" fill="#F4F4F2" transform="translate(0,0)"/>
<path d="" fill="#F0F0EE" transform="translate(0,0)"/>
<path d="" fill="#F5F4F2" transform="translate(0,0)"/>
<path d="" fill="#F4F4F4" transform="translate(0,0)"/>
<path d="" fill="#F4F4F4" transform="translate(0,0)"/>
<path d="" fill="#F4F4F4" transform="translate(0,0)"/>
<path d="" fill="#F3F3F3" transform="translate(0,0)"/>
<path d="" fill="#F4F4F4" transform="translate(0,0)"/>
<path d="" fill="#F3F3F3" transform="translate(0,0)"/>
<path d="" fill="#F4F4F4" transform="translate(0,0)"/>
<path d="" fill="#F3F3F3" transform="translate(0,0)"/>
<path d="" fill="#F4F4F4" transform="translate(0,0)"/>
<path d="" fill="#F1F1F1" transform="translate(0,0)"/>
<path d="" fill="#F4F4F4" transform="translate(0,0)"/>
<path d="" fill="#F3F3F3" transform="translate(0,0)"/>
<path d="" fill="#F3F3F1" transform="translate(0,0)"/>
<path d="" fill="#F3F3F3" transform="translate(0,0)"/>
<path d="" fill="#F2F2F2" transform="translate(0,0)"/>
<path d="" fill="#F4F4F4" transform="translate(0,0)"/>
<path d="" fill="#F4F4F4" transform="translate(0,0)"/>
<path d="" fill="#F4F4F4" transform="translate(0,0)"/>
<path d="" fill="#F0F0F0" transform="translate(0,0)"/>
<path d="" fill="#F1F1F1" transform="translate(0,0)"/>
<path d="" fill="#F4F3F1" transform="translate(0,0)"/>
<path d="" fill="#F2F2F2" transform="translate(0,0)"/>
<path d="" fill="#F4F4F2" transform="translate(0,0)"/>
<path d="" fill="#F3F3F3" transform="translate(0,0)"/>
<path d="" fill="#F4F4F2" transform="translate(0,0)"/>
<path d="" fill="#F4F4F2" transform="translate(0,0)"/>
<path d="" fill="#F1F1F1" transform="translate(0,0)"/>
<path d="" fill="#F3F3F1" transform="translate(0,0)"/>
<path d="" fill="#F1F1F1" transform="translate(0,0)"/>
<path d="" fill="#EFEFEF" transform="translate(0,0)"/>
<path d="" fill="#F4F4F4" transform="translate(0,0)"/>
<path d="" fill="#F4F4F4" transform="translate(0,0)"/>
<path d="" fill="#EFEFEF" transform="translate(0,0)"/>
<path d="" fill="#EFEFEF" transform="translate(0,0)"/>
<path d="" fill="#F2F2F2" transform="translate(0,0)"/>
<path d="" fill="#F4F4F4" transform="translate(0,0)"/>
<path d="" fill="#F4F3F1" transform="translate(0,0)"/>
<path d="" fill="#F4F4F4" transform="translate(0,0)"/>
<path d="" fill="#F4F4F4" transform="translate(0,0)"/>
<path d="" fill="#F4F4F4" transform="translate(0,0)"/>
<path d="" fill="#F4F4F4" transform="translate(0,0)"/>
<path d="" fill="#F3F3F1" transform="translate(0,0)"/>
<path d="" fill="#F2F2F2" transform="translate(0,0)"/>
<path d="" fill="#F2F2F2" transform="translate(0,0)"/>
<path d="" fill="#F2F2F2" transform="translate(0,0)"/>
<path d="" fill="#EFEFEF" transform="translate(0,0)"/>
<path d="" fill="#F4F4F4" transform="translate(0,0)"/>
<path d="" fill="#F4F4F4" transform="translate(0,0)"/>
<path d="" fill="#EFEFEF" transform="translate(0,0)"/>
<path d="" fill="#F4F4F4" transform="translate(0,0)"/>
<path d="" fill="#F4F4F4" transform="translate(0,0)"/>
<path d="" fill="#F2F2F2" transform="translate(0,0)"/>
<path d="" fill="#F3F3F3" transform="translate(0,0)"/>
<path d="" fill="#F4F4F4" transform="translate(0,0)"/>
<path d="" fill="#F4F4F4" transform="translate(0,0)"/>
<path d="" fill="#F4F3F1" transform="translate(0,0)"/>
<path d="" fill="#F4F4F4" transform="translate(0,0)"/>
<path d="" fill="#F4F4F2" transform="translate(0,0)"/>
<path d="" fill="#F3F3F3" transform="translate(0,0)"/>
<path d="" fill="#F2F2F0" transform="translate(0,0)"/>
<path d="" fill="#F0F0F0" transform="translate(0,0)"/>
<path d="" fill="#F3F3F3" transform="translate(0,0)"/>
<path d="" fill="#F4F4F4" transform="translate(0,0)"/>
<path d="" fill="#EFEFEF" transform="translate(0,0)"/>
<path d="" fill="#F1F1F1" transform="translate(0,0)"/>
<path d="" fill="#F3F3F3" transform="translate(0,0)"/>
<path d="" fill="#F2F2F2" transform="translate(0,0)"/>
<path d="" fill="#F4F4F4" transform="translate(0,0)"/>
<path d="" fill="#F1F1F1" transform="translate(0,0)"/>
<path d="" fill="#F2F2F2" transform="translate(0,0)"/>
<path d="" fill="#F3F3F3" transform="translate(0,0)"/>
<path d="" fill="#F2F2F2" transform="translate(0,0)"/>
<path d="" fill="#F2F2F2" transform="translate(0,0)"/>
<path d="" fill="#F4F4F4" transform="translate(0,0)"/>
<path d="" fill="#F5F4F2" transform="translate(0,0)"/>
<path d="" fill="#F3F3F3" transform="translate(0,0)"/>
<path d="" fill="#F4F4F4" transform="translate(0,0)"/>
<path d="" fill="#F4F4F2" transform="translate(0,0)"/>
<path d="" fill="#F3F3F3" transform="translate(0,0)"/>
<path d="" fill="#F4F4F4" transform="translate(0,0)"/>
<path d="" fill="#F1F1F1" transform="translate(0,0)"/>
<path d="" fill="#F2F2F0" transform="translate(0,0)"/>
<path d="" fill="#F4F4F4" transform="translate(0,0)"/>
<path d="" fill="#F2F2F2" transform="translate(0,0)"/>
<path d="" fill="#F4F4F2" transform="translate(0,0)"/>
<path d="" fill="#F4F4F4" transform="translate(0,0)"/>
<path d="" fill="#F4F4F4" transform="translate(0,0)"/>
<path d="" fill="#F3F3F3" transform="translate(0,0)"/>
<path d="" fill="#EFEFEF" transform="translate(0,0)"/>
<path d="" fill="#F0F0F0" transform="translate(0,0)"/>
<path d="" fill="#F4F4F4" transform="translate(0,0)"/>
<path d="" fill="#F5F4F2" transform="translate(0,0)"/>
<path d="" fill="#F2F2F2" transform="translate(0,0)"/>
<path d="" fill="#ECECEC" transform="translate(0,0)"/>
<path d="" fill="#F2F2F2" transform="translate(0,0)"/>
<path d="" fill="#F1F1F1" transform="translate(0,0)"/>
<path d="" fill="#F4F4F4" transform="translate(0,0)"/>
<path d="" fill="#F2F2F2" transform="translate(0,0)"/>
<path d="" fill="#F4F4F4" transform="translate(0,0)"/>
<path d="" fill="#F4F4F2" transform="translate(0,0)"/>
<path d="" fill="#F4F4F4" transform="translate(0,0)"/>
<path d="" fill="#F3F3F3" transform="translate(0,0)"/>
<path d="" fill="#F3F2F0" transform="translate(0,0)"/>
<path d="" fill="#F0F0F0" transform="translate(0,0)"/>
<path d="" fill="#F4F4F4" transform="translate(0,0)"/>
<path d="" fill="#F5F4F2" transform="translate(0,0)"/>
<path d="" fill="#F3F3F1" transform="translate(0,0)"/>
<path d="" fill="#F4F4F2" transform="translate(0,0)"/>
<path d="" fill="#F3F3F3" transform="translate(0,0)"/>
<path d="" fill="#F3F3F1" transform="translate(0,0)"/>
<path d="" fill="#F4F4F4" transform="translate(0,0)"/>
<path d="" fill="#F2F2F0" transform="translate(0,0)"/>
<path d="" fill="#F2F2F2" transform="translate(0,0)"/>
<path d="" fill="#F0F0F0" transform="translate(0,0)"/>
<path d="" fill="#F4F4F4" transform="translate(0,0)"/>
<path d="" fill="#F4F4F4" transform="translate(0,0)"/>
<path d="" fill="#F3F3F3" transform="translate(0,0)"/>
<path d="" fill="#F4F4F4" transform="translate(0,0)"/>
<path d="" fill="#F4F4F4" transform="translate(0,0)"/>
<path d="" fill="#F4F4F2" transform="translate(0,0)"/>
<path d="" fill="#F4F4F4" transform="translate(0,0)"/>
<path d="" fill="#F4F4F4" transform="translate(0,0)"/>
<path d="" fill="#F3F3F3" transform="translate(0,0)"/>
<path d="" fill="#F3F3F3" transform="translate(0,0)"/>
<path d="" fill="#F2F2F2" transform="translate(0,0)"/>
<path d="" fill="#F2F2F2" transform="translate(0,0)"/>
<path d="" fill="#F2F2F2" transform="translate(0,0)"/>
<path d="" fill="#F3F3F3" transform="translate(0,0)"/>
<path d="" fill="#F4F4F4" transform="translate(0,0)"/>
<path d="" fill="#F3F3F3" transform="translate(0,0)"/>
<path d="" fill="#EFEFEF" transform="translate(0,0)"/>
<path d="" fill="#F2F2F2" transform="translate(0,0)"/>
<path d="" fill="#F3F3F3" transform="translate(0,0)"/>
<path d="" fill="#F2F2F0" transform="translate(0,0)"/>
<path d="" fill="#F2F2F2" transform="translate(0,0)"/>
<path d="" fill="#F3F3F3" transform="translate(0,0)"/>
<path d="" fill="#F4F4F4" transform="translate(0,0)"/>
<path d="" fill="#F4F4F2" transform="translate(0,0)"/>
<path d="" fill="#F0F0F0" transform="translate(0,0)"/>
<path d="" fill="#F3F3F1" transform="translate(0,0)"/>
<path d="" fill="#F4F4F4" transform="translate(0,0)"/>
<path d="" fill="#F4F4F4" transform="translate(0,0)"/>
<path d="" fill="#F2F2F2" transform="translate(0,0)"/>
<path d="" fill="#F4F4F4" transform="translate(0,0)"/>
<path d="" fill="#F0F0EE" transform="translate(0,0)"/>
<path d="" fill="#F4F4F4" transform="translate(0,0)"/>
<path d="" fill="#F4F4F4" transform="translate(0,0)"/>
<path d="" fill="#F2F2F0" transform="translate(0,0)"/>
<path d="" fill="#F4F4F2" transform="translate(0,0)"/>
<path d="" fill="#F4F4F2" transform="translate(0,0)"/>
<path d="" fill="#F1F1F1" transform="translate(0,0)"/>
<path d="" fill="#F3F3F3" transform="translate(0,0)"/>
<path d="" fill="#F4F4F4" transform="translate(0,0)"/>
<path d="" fill="#F3F3F3" transform="translate(0,0)"/>
<path d="" fill="#F4F4F4" transform="translate(0,0)"/>
<path d="" fill="#F4F4F4" transform="translate(0,0)"/>
<path d="" fill="#F4F4F4" transform="translate(0,0)"/>
<path d="" fill="#F2F2F2" transform="translate(0,0)"/>
<path d="" fill="#F4F4F4" transform="translate(0,0)"/>
<path d="" fill="#EEEEEE" transform="translate(0,0)"/>
<path d="" fill="#F2F2F2" transform="translate(0,0)"/>
<path d="" fill="#F2F2F2" transform="translate(0,0)"/>
<path d="" fill="#F3F3F3" transform="translate(0,0)"/>
<path d="" fill="#F2F2F2" transform="translate(0,0)"/>
<path d="" fill="#F1F1F1" transform="translate(0,0)"/>
<path d="" fill="#F3F3F3" transform="translate(0,0)"/>
<path d="" fill="#F4F3F1" transform="translate(0,0)"/>
<path d="" fill="#F4F4F4" transform="translate(0,0)"/>
<path d="" fill="#F0F0F0" transform="translate(0,0)"/>
<path d="" fill="#F4F4F4" transform="translate(0,0)"/>
<path d="" fill="#F3F3F3" transform="translate(0,0)"/>
<path d="" fill="#F4F4F4" transform="translate(0,0)"/>
<path d="" fill="#F0F0F0" transform="translate(0,0)"/>
<path d="" fill="#F3F3F3" transform="translate(0,0)"/>
<path d="" fill="#F3F3F3" transform="translate(0,0)"/>
<path d="" fill="#F1F1F1" transform="translate(0,0)"/>
<path d="" fill="#F4F4F4" transform="translate(0,0)"/>
<path d="" fill="#F3F3F3" transform="translate(0,0)"/>
<path d="" fill="#F3F3F3" transform="translate(0,0)"/>
<path d="" fill="#F1F1F1" transform="translate(0,0)"/>
<path d="" fill="#F2F2F2" transform="translate(0,0)"/>
<path d="" fill="#EFEFEF" transform="translate(0,0)"/>
<path d="" fill="#EDEDED" transform="translate(0,0)"/>
<path d="" fill="#F3F3F3" transform="translate(0,0)"/>
<path d="" fill="#F2F2F2" transform="translate(0,0)"/>
<path d="" fill="#F3F3F3" transform="translate(0,0)"/>
<path d="" fill="#F3F3F3" transform="translate(0,0)"/>
<path d="" fill="#F0F0F0" transform="translate(0,0)"/>
<path d="" fill="#F4F4F4" transform="translate(0,0)"/>
<path d="" fill="#F3F3F3" transform="translate(0,0)"/>
<path d="" fill="#F3F3F3" transform="translate(0,0)"/>
<path d="" fill="#EDEDED" transform="translate(0,0)"/>
<path d="" fill="#F1F1F1" transform="translate(0,0)"/>
<path d="" fill="#F0F0F0" transform="translate(0,0)"/>
<path d="" fill="#F2F2F2" transform="translate(0,0)"/>
<path d="" fill="#F4F4F4" transform="translate(0,0)"/>
<path d="" fill="#F2F2F2" transform="translate(0,0)"/>
<path d="" fill="#F4F4F2" transform="translate(0,0)"/>
<path d="" fill="#F1F1EF" transform="translate(0,0)"/>
<path d="" fill="#F4F4F4" transform="translate(0,0)"/>
<path d="" fill="#F4F4F4" transform="translate(0,0)"/>
<path d="" fill="#F1F1F1" transform="translate(0,0)"/>
<path d="" fill="#F3F3F1" transform="translate(0,0)"/>
<path d="" fill="#F4F4F4" transform="translate(0,0)"/>
<path d="" fill="#F4F4F2" transform="translate(0,0)"/>
<path d="" fill="#F1F1F1" transform="translate(0,0)"/>
<path d="" fill="#F2F2F2" transform="translate(0,0)"/>
<path d="" fill="#F1F1F1" transform="translate(0,0)"/>
<path d="" fill="#F3F3F3" transform="translate(0,0)"/>
<path d="" fill="#F3F3F3" transform="translate(0,0)"/>
<path d="" fill="#F4F4F4" transform="translate(0,0)"/>
<path d="" fill="#F4F4F4" transform="translate(0,0)"/>
<path d="" fill="#F3F3F3" transform="translate(0,0)"/>
<path d="" fill="#F3F3F3" transform="translate(0,0)"/>
<path d="" fill="#F3F3F3" transform="translate(0,0)"/>
<path d="" fill="#F4F4F4" transform="translate(0,0)"/>
<path d="" fill="#F2F2F2" transform="translate(0,0)"/>
<path d="" fill="#EFEFEF" transform="translate(0,0)"/>
<path d="" fill="#F3F3F3" transform="translate(0,0)"/>
<path d="" fill="#F4F4F4" transform="translate(0,0)"/>
<path d="" fill="#F3F3F3" transform="translate(0,0)"/>
<path d="" fill="#F2F2F2" transform="translate(0,0)"/>
<path d="" fill="#F1F1EF" transform="translate(0,0)"/>
<path d="" fill="#F4F4F2" transform="translate(0,0)"/>
<path d="" fill="#F4F4F4" transform="translate(0,0)"/>
<path d="" fill="#EEEEEE" transform="translate(0,0)"/>
<path d="" fill="#F3F3F1" transform="translate(0,0)"/>
<path d="" fill="#F4F4F4" transform="translate(0,0)"/>
<path d="" fill="#F4F4F4" transform="translate(0,0)"/>
<path d="" fill="#F4F4F2" transform="translate(0,0)"/>
<path d="" fill="#F0F0F0" transform="translate(0,0)"/>
<path d="" fill="#F4F4F4" transform="translate(0,0)"/>
<path d="" fill="#F3F3F3" transform="translate(0,0)"/>
<path d="" fill="#F4F4F4" transform="translate(0,0)"/>
<path d="" fill="#F1F1F1" transform="translate(0,0)"/>
<path d="" fill="#F1F1F1" transform="translate(0,0)"/>
<path d="" fill="#F3F3F3" transform="translate(0,0)"/>
<path d="" fill="#F3F3F3" transform="translate(0,0)"/>
<path d="" fill="#F2F2F2" transform="translate(0,0)"/>
<path d="" fill="#EEEEEE" transform="translate(0,0)"/>
<path d="" fill="#F4F4F4" transform="translate(0,0)"/>
<path d="" fill="#F4F4F4" transform="translate(0,0)"/>
<path d="" fill="#F4F4F4" transform="translate(0,0)"/>
<path d="" fill="#F2F2F0" transform="translate(0,0)"/>
<path d="" fill="#F1F1F1" transform="translate(0,0)"/>
<path d="" fill="#F1F1F1" transform="translate(0,0)"/>
<path d="" fill="#F1F1F1" transform="translate(0,0)"/>
<path d="" fill="#EEEEEE" transform="translate(0,0)"/>
<path d="" fill="#F4F4F4" transform="translate(0,0)"/>
<path d="" fill="#F1F1EF" transform="translate(0,0)"/>
<path d="" fill="#F3F3F1" transform="translate(0,0)"/>
<path d="" fill="#F4F4F2" transform="translate(0,0)"/>
<path d="" fill="#F4F4F4" transform="translate(0,0)"/>
<path d="" fill="#F3F3F3" transform="translate(0,0)"/>
<path d="" fill="#F2F2F2" transform="translate(0,0)"/>
<path d="" fill="#F1F1F1" transform="translate(0,0)"/>
<path d="" fill="#F1F1F1" transform="translate(0,0)"/>
<path d="" fill="#F4F4F4" transform="translate(0,0)"/>
<path d="" fill="#F3F3F3" transform="translate(0,0)"/>
<path d="" fill="#F1F1F1" transform="translate(0,0)"/>
<path d="" fill="#F3F3F1" transform="translate(0,0)"/>
<path d="" fill="#F2F2F2" transform="translate(0,0)"/>
<path d="" fill="#EEEEEE" transform="translate(0,0)"/>
<path d="" fill="#F4F4F4" transform="translate(0,0)"/>
<path d="" fill="#F4F4F4" transform="translate(0,0)"/>
<path d="" fill="#EEEEEE" transform="translate(0,0)"/>
<path d="" fill="#F1F1F1" transform="translate(0,0)"/>
<path d="" fill="#F4F4F2" transform="translate(0,0)"/>
<path d="" fill="#F1F1F1" transform="translate(0,0)"/>
<path d="" fill="#F3F3F3" transform="translate(0,0)"/>
<path d="" fill="#F3F3F1" transform="translate(0,0)"/>
<path d="" fill="#F4F4F4" transform="translate(0,0)"/>
<path d="" fill="#F4F4F4" transform="translate(0,0)"/>
<path d="" fill="#F3F3F3" transform="translate(0,0)"/>
<path d="" fill="#F4F4F4" transform="translate(0,0)"/>
<path d="" fill="#F4F4F4" transform="translate(0,0)"/>
<path d="" fill="#F3F3F3" transform="translate(0,0)"/>
<path d="" fill="#F2F2F2" transform="translate(0,0)"/>
<path d="" fill="#F0F0EE" transform="translate(0,0)"/>
<path d="" fill="#F4F4F2" transform="translate(0,0)"/>
<path d="" fill="#F4F4F2" transform="translate(0,0)"/>
<path d="" fill="#F4F4F4" transform="translate(0,0)"/>
<path d="" fill="#F3F3F3" transform="translate(0,0)"/>
<path d="" fill="#F3F3F3" transform="translate(0,0)"/>
<path d="" fill="#F3F3F3" transform="translate(0,0)"/>
<path d="" fill="#F4F4F4" transform="translate(0,0)"/>
<path d="" fill="#F4F4F4" transform="translate(0,0)"/>
<path d="" fill="#F3F3F3" transform="translate(0,0)"/>
<path d="" fill="#F1F1F1" transform="translate(0,0)"/>
<path d="" fill="#F4F4F4" transform="translate(0,0)"/>
<path d="" fill="#F4F4F4" transform="translate(0,0)"/>
<path d="" fill="#F3F3F3" transform="translate(0,0)"/>
<path d="" fill="#F4F4F4" transform="translate(0,0)"/>
<path d="" fill="#F4F4F4" transform="translate(0,0)"/>
</svg>
